# xmcd CD database file
#
# Track frame offsets:
#	150
#	31970
#	89567
#	169663
#	182298
#
# Disc length: 3120 seconds
#
# Revision: 0
# Processed by: cddbd v1.5.2PL0 Copyright (c) Steve Scherf et al.
# Submitted via: CDex 1.51
#
DISCID=320c2e05
DTITLE=Rory Gallagher - Cowtown Ballroom KC, Kansas [CD3)
DYEAR=1999
DGENRE=Blues
TTITLE0=Going To My Hometown
TTITLE1=Who's That Coming
TTITLE2=Bullfrog Blues
TTITLE3=Waiting For An Encore
TTITLE4=Living Like A Trucker
EXTD=YEAR: 1999
EXTT0=
EXTT1=
EXTT2=
EXTT3=
EXTT4=
PLAYORDER=
